%TF.GenerationSoftware,KiCad,Pcbnew,8.0.1*%
%TF.CreationDate,2024-03-25T08:35:16+01:00*%
%TF.ProjectId,rotary_switch_nv_scanner,726f7461-7279-45f7-9377-697463685f6e,rev?*%
%TF.SameCoordinates,Original*%
%TF.FileFunction,Copper,L1,Top*%
%TF.FilePolarity,Positive*%
%FSLAX46Y46*%
G04 Gerber Fmt 4.6, Leading zero omitted, Abs format (unit mm)*
G04 Created by KiCad (PCBNEW 8.0.1) date 2024-03-25 08:35:16*
%MOMM*%
%LPD*%
G01*
G04 APERTURE LIST*
G04 Aperture macros list*
%AMRoundRect*
0 Rectangle with rounded corners*
0 $1 Rounding radius*
0 $2 $3 $4 $5 $6 $7 $8 $9 X,Y pos of 4 corners*
0 Add a 4 corners polygon primitive as box body*
4,1,4,$2,$3,$4,$5,$6,$7,$8,$9,$2,$3,0*
0 Add four circle primitives for the rounded corners*
1,1,$1+$1,$2,$3*
1,1,$1+$1,$4,$5*
1,1,$1+$1,$6,$7*
1,1,$1+$1,$8,$9*
0 Add four rect primitives between the rounded corners*
20,1,$1+$1,$2,$3,$4,$5,0*
20,1,$1+$1,$4,$5,$6,$7,0*
20,1,$1+$1,$6,$7,$8,$9,0*
20,1,$1+$1,$8,$9,$2,$3,0*%
G04 Aperture macros list end*
%TA.AperFunction,Conductor*%
%ADD10C,0.000000*%
%TD*%
%TA.AperFunction,Conductor*%
%ADD11C,0.200000*%
%TD*%
%TA.AperFunction,Conductor*%
%ADD12C,6.000000*%
%TD*%
%TA.AperFunction,EtchedComponent*%
%ADD13C,2.000000*%
%TD*%
%TA.AperFunction,SMDPad,CuDef*%
%ADD14RoundRect,0.250000X-0.250000X-0.750000X0.250000X-0.750000X0.250000X0.750000X-0.250000X0.750000X0*%
%TD*%
%TA.AperFunction,SMDPad,CuDef*%
%ADD15RoundRect,0.200000X-0.317393X0.122010X-0.213866X-0.264360X0.317393X-0.122010X0.213866X0.264360X0*%
%TD*%
%TA.AperFunction,Conductor*%
%ADD16C,0.250000*%
%TD*%
G04 APERTURE END LIST*
D10*
%TA.AperFunction,Conductor*%
%TO.N,unconnected-(J1-Pin_1-Pad1)*%
G36*
X125149077Y-93562613D02*
G01*
X125149077Y-93562613D01*
G75*
G03*
X125110516Y-98099629I19850923J-2437387D01*
G01*
X119319502Y-100063500D01*
G75*
G02*
X119003960Y-95546239I25680598J4063500D01*
G01*
X119003960Y-95546237D01*
X125149077Y-93562613D01*
G37*
%TD.AperFunction*%
%TA.AperFunction,Conductor*%
%TO.N,unconnected-(J11-Pin_1-Pad1)*%
G36*
X148275581Y-68620034D02*
G01*
X149419211Y-68691503D01*
X150431383Y-69023589D01*
X151496844Y-69212054D01*
X151940214Y-69439217D01*
X152220807Y-69486287D01*
X152492132Y-77456323D01*
X152069561Y-77288372D01*
X151211736Y-76986372D01*
X150341070Y-76723676D01*
X149459364Y-76500826D01*
X148568440Y-76318284D01*
X148119691Y-76244810D01*
X147678121Y-68556341D01*
X148275581Y-68620034D01*
G37*
%TD.AperFunction*%
%TA.AperFunction,Conductor*%
%TO.N,unconnected-(J10-Pin_1-Pad1)*%
G36*
X161526719Y-73926044D02*
G01*
X162481397Y-74559753D01*
X163191921Y-75353434D01*
X164020405Y-76049380D01*
X164290793Y-76467794D01*
X164510259Y-76648854D01*
X160760215Y-83686770D01*
X160478233Y-83330035D01*
X159886335Y-82639583D01*
X159263664Y-81976749D01*
X158611509Y-81342902D01*
X157931217Y-80739354D01*
X157579327Y-80451349D01*
X161041150Y-73572154D01*
X161526719Y-73926044D01*
G37*
%TD.AperFunction*%
%TA.AperFunction,Conductor*%
%TO.N,unconnected-(J1-Pin_1-Pad1)*%
G36*
X170349537Y-85146753D02*
G01*
X170859458Y-86172900D01*
X171077949Y-87215510D01*
X171447464Y-88232459D01*
X171472420Y-88730010D01*
X171571953Y-88996546D01*
X164805362Y-93216538D01*
X164739526Y-92766605D01*
X164572153Y-91872707D01*
X164364321Y-90987340D01*
X164116462Y-90112335D01*
X163829086Y-89249501D01*
X163668342Y-88824137D01*
X170105967Y-84597491D01*
X170349537Y-85146753D01*
G37*
%TD.AperFunction*%
%TA.AperFunction,Conductor*%
G36*
X172379966Y-99275581D02*
G01*
X172308497Y-100419211D01*
X171976411Y-101431383D01*
X171787946Y-102496844D01*
X171560783Y-102940214D01*
X171513713Y-103220807D01*
X163543677Y-103492132D01*
X163711628Y-103069561D01*
X164013628Y-102211736D01*
X164276324Y-101341070D01*
X164499174Y-100459364D01*
X164681716Y-99568440D01*
X164755190Y-99119691D01*
X172443659Y-98678121D01*
X172379966Y-99275581D01*
G37*
%TD.AperFunction*%
%TA.AperFunction,Conductor*%
%TO.N,unconnected-(J7-Pin_1-Pad1)*%
G36*
X167427846Y-112041150D02*
G01*
X167073956Y-112526719D01*
X166440247Y-113481397D01*
X165646566Y-114191921D01*
X164950620Y-115020405D01*
X164532206Y-115290793D01*
X164351146Y-115510259D01*
X157313230Y-111760215D01*
X157669965Y-111478233D01*
X158360417Y-110886335D01*
X159023251Y-110263664D01*
X159657098Y-109611509D01*
X160260646Y-108931217D01*
X160548651Y-108579327D01*
X167427846Y-112041150D01*
G37*
%TD.AperFunction*%
%TA.AperFunction,Conductor*%
%TO.N,unconnected-(J6-Pin_1-Pad1)*%
G36*
X156402509Y-121105967D02*
G01*
X155853247Y-121349537D01*
X154827100Y-121859458D01*
X153784490Y-122077949D01*
X152767541Y-122447464D01*
X152269990Y-122472420D01*
X152003454Y-122571953D01*
X147783462Y-115805362D01*
X148233395Y-115739526D01*
X149127293Y-115572153D01*
X150012660Y-115364321D01*
X150887665Y-115116462D01*
X151750499Y-114829086D01*
X152175863Y-114668342D01*
X156402509Y-121105967D01*
G37*
%TD.AperFunction*%
%TA.AperFunction,Conductor*%
%TO.N,unconnected-(J5-Pin_1-Pad1)*%
G36*
X137930439Y-114711628D02*
G01*
X138788264Y-115013628D01*
X139658930Y-115276324D01*
X140540636Y-115499174D01*
X141431560Y-115681716D01*
X141880309Y-115755190D01*
X142321879Y-123443659D01*
X141724419Y-123379966D01*
X140580789Y-123308497D01*
X139568617Y-122976411D01*
X138503156Y-122787946D01*
X138059786Y-122560783D01*
X137779193Y-122513713D01*
X137507868Y-114543677D01*
X137930439Y-114711628D01*
G37*
%TD.AperFunction*%
%TA.AperFunction,Conductor*%
%TO.N,unconnected-(J4-Pin_1-Pad1)*%
G36*
X129521767Y-108669965D02*
G01*
X130113665Y-109360417D01*
X130736336Y-110023251D01*
X131388491Y-110657098D01*
X132068783Y-111260646D01*
X132420673Y-111548651D01*
X128958850Y-118427846D01*
X128473281Y-118073956D01*
X127518603Y-117440247D01*
X126808079Y-116646566D01*
X125979595Y-115950620D01*
X125709207Y-115532206D01*
X125489741Y-115351146D01*
X129239785Y-108313230D01*
X129521767Y-108669965D01*
G37*
%TD.AperFunction*%
%TA.AperFunction,Conductor*%
%TO.N,unconnected-(J3-Pin_1-Pad1)*%
G36*
X125260474Y-99233395D02*
G01*
X125427847Y-100127293D01*
X125635679Y-101012660D01*
X125883538Y-101887665D01*
X126170914Y-102750499D01*
X126331658Y-103175863D01*
X119894033Y-107402509D01*
X119650463Y-106853247D01*
X119140542Y-105827100D01*
X118922051Y-104784490D01*
X118552536Y-103767541D01*
X118527580Y-103269990D01*
X118428047Y-103003454D01*
X125194638Y-98783462D01*
X125260474Y-99233395D01*
G37*
%TD.AperFunction*%
%TA.AperFunction,Conductor*%
%TO.N,unconnected-(J2-Pin_1-Pad1)*%
G36*
X126288372Y-88930439D02*
G01*
X125986372Y-89788264D01*
X125723676Y-90658930D01*
X125500826Y-91540636D01*
X125318284Y-92431560D01*
X125244810Y-92880309D01*
X117556341Y-93321879D01*
X117620034Y-92724419D01*
X117691503Y-91580789D01*
X118023589Y-90568617D01*
X118212054Y-89503156D01*
X118439217Y-89059786D01*
X118486287Y-88779193D01*
X126456323Y-88507868D01*
X126288372Y-88930439D01*
G37*
%TD.AperFunction*%
%TA.AperFunction,Conductor*%
%TO.N,unconnected-(J1-Pin_1-Pad1)*%
G36*
X132686770Y-80239785D02*
G01*
X132330035Y-80521767D01*
X131639583Y-81113665D01*
X130976749Y-81736336D01*
X130342902Y-82388491D01*
X129739354Y-83068783D01*
X129451349Y-83420673D01*
X122572154Y-79958850D01*
X122926044Y-79473281D01*
X123559753Y-78518603D01*
X124353434Y-77808079D01*
X125049380Y-76979595D01*
X125467794Y-76709207D01*
X125648854Y-76489741D01*
X132686770Y-80239785D01*
G37*
%TD.AperFunction*%
%TA.AperFunction,Conductor*%
G36*
X155005487Y-72665314D02*
G01*
X156015031Y-72670801D01*
X156907418Y-72883463D01*
X157903580Y-73424383D01*
X158390988Y-73713650D01*
X158390990Y-73713651D01*
X157036300Y-80027290D01*
X156671596Y-79755693D01*
X155921165Y-79241962D01*
X155148157Y-78762872D01*
X154354172Y-78319414D01*
X153540851Y-77912503D01*
X153126410Y-77725388D01*
X154319655Y-72637881D01*
X155005487Y-72665314D01*
G37*
%TD.AperFunction*%
D11*
%TO.N,unconnected-(J12-Pin_1-Pad1)*%
X149453354Y-77585453D02*
X152000000Y-78434824D01*
X151316683Y-81859862D01*
X149741256Y-83755457D01*
X148067911Y-83142711D01*
X148059573Y-77214241D01*
X149453354Y-77585453D01*
%TA.AperFunction,Conductor*%
G36*
X149453354Y-77585453D02*
G01*
X152000000Y-78434824D01*
X151316683Y-81859862D01*
X149741256Y-83755457D01*
X148067911Y-83142711D01*
X148059573Y-77214241D01*
X149453354Y-77585453D01*
G37*
%TD.AperFunction*%
D12*
X150979791Y-81126996D02*
G75*
G02*
X139224611Y-81046438I-5979791J-14873004D01*
G01*
D10*
%TA.AperFunction,Conductor*%
%TO.N,unconnected-(J1-Pin_1-Pad1)*%
G36*
X136000000Y-77000000D02*
G01*
X136767808Y-77769930D01*
X135947688Y-78162959D01*
X135146280Y-78592860D01*
X134365241Y-79058743D01*
X133606185Y-79559646D01*
X133236926Y-79825016D01*
X128640656Y-75791787D01*
X129083108Y-75437557D01*
X129994394Y-74763397D01*
X130934194Y-74129594D01*
X131900725Y-73537353D01*
X132394948Y-73259889D01*
X132394950Y-73259888D01*
X136000000Y-77000000D01*
G37*
%TD.AperFunction*%
%TA.AperFunction,Conductor*%
G36*
X133328404Y-112244307D02*
G01*
X134078835Y-112758038D01*
X134851843Y-113237128D01*
X135645828Y-113680586D01*
X136459149Y-114087497D01*
X136873590Y-114274612D01*
X135822999Y-119362119D01*
X135041150Y-119395039D01*
X134041150Y-119403269D01*
X133092582Y-119116537D01*
X132096420Y-118575617D01*
X131609012Y-118286350D01*
X131609010Y-118286349D01*
X132963700Y-111972710D01*
X133328404Y-112244307D01*
G37*
%TD.AperFunction*%
%TA.AperFunction,Conductor*%
G36*
X165208213Y-79640656D02*
G01*
X165208213Y-79640656D01*
G75*
G02*
X167740111Y-83394948I-20208113J-16359244D01*
G01*
X167740112Y-83394950D01*
X163410097Y-88185377D01*
G75*
G03*
X161174984Y-84236926I-18409997J-7814623D01*
G01*
X165208213Y-79640656D01*
G37*
%TD.AperFunction*%
%TA.AperFunction,Conductor*%
G36*
X142562613Y-115850923D02*
G01*
X142562613Y-115850923D01*
G75*
G03*
X147099629Y-115889484I2437387J19850923D01*
G01*
X149063500Y-121680498D01*
G75*
G02*
X144546239Y-121996040I-4063500J25680598D01*
G01*
X144546237Y-121996040D01*
X142562613Y-115850923D01*
G37*
%TD.AperFunction*%
%TA.AperFunction,Conductor*%
G36*
X126589903Y-103814623D02*
G01*
X126589903Y-103814623D01*
G75*
G03*
X128825016Y-107763074I18409997J7814623D01*
G01*
X124791787Y-112359344D01*
G75*
G02*
X122259889Y-108605052I20208113J16359244D01*
G01*
X122259888Y-108605050D01*
X126589903Y-103814623D01*
G37*
%TD.AperFunction*%
%TA.AperFunction,Conductor*%
G36*
X170680498Y-91936500D02*
G01*
X170680498Y-91936500D01*
G75*
G02*
X170996040Y-96453761I-25680598J-4063500D01*
G01*
X170996040Y-96453763D01*
X164850923Y-98437387D01*
G75*
G03*
X164889484Y-93900371I-19850923J2437387D01*
G01*
X170680498Y-91936500D01*
G37*
%TD.AperFunction*%
%TA.AperFunction,Conductor*%
G36*
X129027290Y-83963700D02*
G01*
X128755693Y-84328404D01*
X128241962Y-85078835D01*
X127762872Y-85851843D01*
X127319414Y-86645828D01*
X126912503Y-87459149D01*
X126725388Y-87873590D01*
X121752987Y-86938161D01*
X121802367Y-86234498D01*
X121790022Y-85123450D01*
X121883463Y-84092582D01*
X122424383Y-83096420D01*
X122713650Y-82609012D01*
X122713651Y-82609010D01*
X129027290Y-83963700D01*
G37*
%TD.AperFunction*%
%TA.AperFunction,Conductor*%
G36*
X161359344Y-116208213D02*
G01*
X161359344Y-116208213D01*
G75*
G02*
X157605052Y-118740111I-16359244J20208113D01*
G01*
X157605050Y-118740112D01*
X152814623Y-114410097D01*
G75*
G03*
X156763074Y-112174984I-7814623J18409997D01*
G01*
X161359344Y-116208213D01*
G37*
%TD.AperFunction*%
%TA.AperFunction,Conductor*%
G36*
X168123223Y-105160712D02*
G01*
X168012118Y-106049550D01*
X168061498Y-106938389D01*
X168116537Y-107907418D01*
X167575617Y-108903580D01*
X167286350Y-109390988D01*
X167286349Y-109390990D01*
X160972710Y-108036300D01*
X161244307Y-107671596D01*
X161758038Y-106921165D01*
X162237128Y-106148157D01*
X162680586Y-105354172D01*
X163087497Y-104540851D01*
X163274612Y-104126410D01*
X168123223Y-105160712D01*
G37*
%TD.AperFunction*%
D11*
%TO.N,unconnected-(J12-Pin_1-Pad1)*%
X142050993Y-80344949D02*
X139115220Y-79214093D01*
X137926844Y-78534034D01*
X133101817Y-70223668D01*
X136725467Y-70344087D01*
X138160371Y-68246956D01*
X142050993Y-80344949D01*
%TA.AperFunction,Conductor*%
G36*
X142050993Y-80344949D02*
G01*
X139115220Y-79214093D01*
X137926844Y-78534034D01*
X133101817Y-70223668D01*
X136725467Y-70344087D01*
X138160371Y-68246956D01*
X142050993Y-80344949D01*
G37*
%TD.AperFunction*%
D13*
%TD*%
%TO.C,J11*%
X159000000Y-67000000D02*
G75*
G02*
X151000000Y-67000000I-4000000J0D01*
G01*
X151000000Y-67000000D02*
G75*
G02*
X159000000Y-67000000I4000000J0D01*
G01*
%TO.C,J12*%
X139000000Y-67000000D02*
G75*
G02*
X131000000Y-67000000I-4000000J0D01*
G01*
X131000000Y-67000000D02*
G75*
G02*
X139000000Y-67000000I4000000J0D01*
G01*
%TO.C,J10*%
X171000000Y-74000000D02*
G75*
G02*
X163000000Y-74000000I-4000000J0D01*
G01*
X163000000Y-74000000D02*
G75*
G02*
X171000000Y-74000000I4000000J0D01*
G01*
%TO.C,J9*%
X178000000Y-86000000D02*
G75*
G02*
X170000000Y-86000000I-4000000J0D01*
G01*
X170000000Y-86000000D02*
G75*
G02*
X178000000Y-86000000I4000000J0D01*
G01*
%TO.C,J8*%
X178000000Y-106000000D02*
G75*
G02*
X170000000Y-106000000I-4000000J0D01*
G01*
X170000000Y-106000000D02*
G75*
G02*
X178000000Y-106000000I4000000J0D01*
G01*
%TO.C,J7*%
X171000000Y-118000000D02*
G75*
G02*
X163000000Y-118000000I-4000000J0D01*
G01*
X163000000Y-118000000D02*
G75*
G02*
X171000000Y-118000000I4000000J0D01*
G01*
%TO.C,J6*%
X159000000Y-125000000D02*
G75*
G02*
X151000000Y-125000000I-4000000J0D01*
G01*
X151000000Y-125000000D02*
G75*
G02*
X159000000Y-125000000I4000000J0D01*
G01*
%TO.C,J5*%
X139000000Y-125000000D02*
G75*
G02*
X131000000Y-125000000I-4000000J0D01*
G01*
X131000000Y-125000000D02*
G75*
G02*
X139000000Y-125000000I4000000J0D01*
G01*
%TO.C,J4*%
X127000000Y-118000000D02*
G75*
G02*
X119000000Y-118000000I-4000000J0D01*
G01*
X119000000Y-118000000D02*
G75*
G02*
X127000000Y-118000000I4000000J0D01*
G01*
%TO.C,J3*%
X120000000Y-106000000D02*
G75*
G02*
X112000000Y-106000000I-4000000J0D01*
G01*
X112000000Y-106000000D02*
G75*
G02*
X120000000Y-106000000I4000000J0D01*
G01*
%TO.C,J2*%
X120000000Y-86000000D02*
G75*
G02*
X112000000Y-86000000I-4000000J0D01*
G01*
X112000000Y-86000000D02*
G75*
G02*
X120000000Y-86000000I4000000J0D01*
G01*
%TO.C,J1*%
X127000000Y-74000000D02*
G75*
G02*
X119000000Y-74000000I-4000000J0D01*
G01*
X119000000Y-74000000D02*
G75*
G02*
X127000000Y-74000000I4000000J0D01*
G01*
%TD*%
D14*
%TO.P,J14,1,Pin_1*%
%TO.N,Net-(J14-Pin_1)*%
X144540000Y-63000000D03*
%TD*%
%TO.P,J13,1,Pin_1*%
%TO.N,Net-(J13-Pin_1)*%
X142000000Y-63000000D03*
%TD*%
D15*
%TO.P,R1,1*%
%TO.N,Net-(J13-Pin_1)*%
X141869400Y-72080735D03*
%TO.P,R1,2*%
%TO.N,Net-(J14-Pin_1)*%
X142296450Y-73674511D03*
%TD*%
D16*
%TO.N,Net-(J13-Pin_1)*%
X142000000Y-71927652D02*
X142126102Y-72053754D01*
X142000000Y-63000000D02*
X142000000Y-71927652D01*
%TO.N,Net-(J14-Pin_1)*%
X144540000Y-71201240D02*
X142039748Y-73701492D01*
X144540000Y-63000000D02*
X144540000Y-71201240D01*
%TD*%
M02*
