0
SECTION
2
HEADER
9
$INSUNITS
70
4
9
$ACADVER
1
AC1014
9
$HANDSEED
5
FFFF
0
ENDSEC
0
SECTION
2
TABLES
0
TABLE
2
VPORT
5
8
100
AcDbSymbolTable
0
ENDTAB
0
TABLE
2
LTYPE
5
5
100
AcDbSymbolTable
0
LTYPE
5
14
100
AcDbSymbolTableRecord
100
AcDbLinetypeTableRecord
2
BYBLOCK
70
0
0
LTYPE
5
15
100
AcDbSymbolTableRecord
100
AcDbLinetypeTableRecord
2
BYLAYER
70
0
0
ENDTAB
0
TABLE
2
LAYER
5
2
100
AcDbSymbolTable
70
2
0
LAYER
5
50
100
AcDbSymbolTableRecord
100
AcDbLayerTableRecord
2
0
70
0
6
CONTINUOUS
0
ENDTAB
0
TABLE
2
STYLE
5
3
100
AcDbSymbolTable
70
1
0
STYLE
5
11
100
AcDbSymbolTableRecord
100
AcDbTextStyleTableRecord
2
STANDARD
70
0
0
ENDTAB
0
TABLE
2
VIEW
5
6
100
AcDbSymbolTable
70
0
0
ENDTAB
0
TABLE
2
UCS
5
7
100
AcDbSymbolTable
70
0
0
ENDTAB
0
TABLE
2
APPID
5
9
100
AcDbSymbolTable
70
2
0
APPID
5
12
100
AcDbSymbolTableRecord
100
AcDbRegAppTableRecord
2
ACAD
70
0
0
ENDTAB
0
TABLE
2
DIMSTYLE
5
A
100
AcDbSymbolTable
70
1
0
ENDTAB
0
TABLE
2
BLOCK_RECORD
5
1
100
AcDbSymbolTable
70
1
0
BLOCK_RECORD
5
1F
100
AcDbSymbolTableRecord
100
AcDbBlockTableRecord
2
*MODEL_SPACE
0
BLOCK_RECORD
5
1B
100
AcDbSymbolTableRecord
100
AcDbBlockTableRecord
2
*PAPER_SPACE
0
ENDTAB
0
ENDSEC
0
SECTION
2
BLOCKS
0
BLOCK
5
20
100
AcDbEntity
100
AcDbBlockBegin
2
*MODEL_SPACE
0
ENDBLK
5
21
100
AcDbEntity
100
AcDbBlockEnd
0
BLOCK
5
1C
100
AcDbEntity
100
AcDbBlockBegin
2
*PAPER_SPACE
0
ENDBLK
5
1D
100
AcDbEntity
100
AcDbBlockEnd
0
ENDSEC
0
SECTION
2
ENTITIES
0
LWPOLYLINE
5
100
100
AcDbEntity
8
0
100
AcDbPolyline
90
2
70
1
43
0.0
10
116.90768096208112
20
-13.375000000000254
10
111.69231903791884
20
-13.375000000000252
42
-3.2596012026012029
0
LWPOLYLINE
5
101
100
AcDbEntity
8
0
100
AcDbPolyline
90
2
70
1
43
0.0
10
59.75768096208111
20
-13.375000000000101
42
3.2596012026012082
10
54.542319037918851
20
-13.375000000000089
0
LWPOLYLINE
5
102
100
AcDbEntity
8
0
100
AcDbPolyline
90
2
70
1
43
0.0
10
21.657680962081109
20
-13.375
42
3.2596012026012082
10
16.442319037918836
20
-13.375
0
LWPOLYLINE
5
103
100
AcDbEntity
8
0
100
AcDbPolyline
90
2
70
1
43
0.0
10
-16.442319037918878
20
5.6750000000000602
10
-21.657680962081134
20
5.6750000000000691
42
-3.2596012026012082
0
LWPOLYLINE
5
104
100
AcDbEntity
8
0
100
AcDbPolyline
90
2
70
1
43
0.0
10
-73.592319037918884
20
-13.374999999999941
10
-78.807680962081136
20
-13.374999999999934
42
-3.2596012026012056
0
LWPOLYLINE
5
105
100
AcDbEntity
8
0
100
AcDbPolyline
90
2
70
1
43
0.0
10
-111.69231903791889
20
-13.374999999999941
10
-116.90768096208116
20
-13.374999999999932
42
-3.2596012026012082
0
LWPOLYLINE
5
106
100
AcDbEntity
8
0
100
AcDbPolyline
90
2
70
1
43
0.0
10
-92.642319037918881
20
-13.374999999999941
10
-97.857680962081162
20
-13.37499999999994
42
-3.259601202601198
0
LWPOLYLINE
5
107
100
AcDbEntity
8
0
100
AcDbPolyline
90
2
70
1
43
0.0
10
-54.542319037918887
20
-13.374999999999941
10
-59.757680962081139
20
-13.374999999999932
42
-3.2596012026012082
0
LWPOLYLINE
5
108
100
AcDbEntity
8
0
100
AcDbPolyline
90
2
70
1
43
0.0
10
-35.492319037918882
20
-13.374999999999941
10
-40.707680962081135
20
-13.374999999999934
42
-3.2596012026012109
0
LWPOLYLINE
5
109
100
AcDbEntity
8
0
100
AcDbPolyline
90
2
70
1
43
0.0
10
40.707680962081113
20
-13.375000000000053
42
3.2596012026012056
10
35.49231903791884
20
-13.375000000000046
0
LWPOLYLINE
5
110
100
AcDbEntity
8
0
100
AcDbPolyline
90
2
70
1
43
0.0
10
78.807680962081122
20
-13.375000000000153
10
73.592319037918855
20
-13.375000000000142
42
-3.2596012026012082
0
LWPOLYLINE
5
111
100
AcDbEntity
8
0
100
AcDbPolyline
90
2
70
1
43
0.0
10
97.857680962081162
20
5.6749999999997964
42
3.2596012026012029
10
92.642319037918895
20
5.674999999999832
0
LWPOLYLINE
5
112
100
AcDbEntity
8
0
100
AcDbPolyline
90
2
70
1
43
0.0
10
116.90768096208116
20
5.6749999999997502
42
3.2596012026012082
10
111.69231903791891
20
5.6749999999997733
0
LWPOLYLINE
5
113
100
AcDbEntity
8
0
100
AcDbPolyline
90
2
70
1
43
0.0
10
59.757680962081167
20
5.6749999999999012
42
3.2596012026012082
10
54.542319037918887
20
5.6749999999998852
0
LWPOLYLINE
5
114
100
AcDbEntity
8
0
100
AcDbPolyline
90
2
70
1
43
0.0
10
21.657680962081166
20
5.6750000000000034
42
3.259601202601198
10
16.442319037918882
20
5.6750000000000078
0
LWPOLYLINE
5
115
100
AcDbEntity
8
0
100
AcDbPolyline
90
2
70
1
43
0.0
10
-35.492319037918882
20
5.6750000000000602
10
-40.707680962081135
20
5.6750000000000664
42
-3.2596012026012082
0
LWPOLYLINE
5
116
100
AcDbEntity
8
0
100
AcDbPolyline
90
2
70
1
43
0.0
10
-73.592319037918884
20
5.6750000000000602
10
-78.807680962081136
20
5.6750000000000682
42
-3.2596012026012056
0
LWPOLYLINE
5
117
100
AcDbEntity
8
0
100
AcDbPolyline
90
2
70
1
43
0.0
10
-111.69231903791889
20
5.6750000000000602
10
-116.90768096208116
20
5.6750000000000682
42
-3.2596012026012056
0
LWPOLYLINE
5
118
100
AcDbEntity
8
0
100
AcDbPolyline
90
2
70
1
43
0.0
10
-92.642319037918881
20
5.6750000000000602
10
-97.857680962081162
20
5.6750000000000593
42
-3.259601202601198
0
LWPOLYLINE
5
119
100
AcDbEntity
8
0
100
AcDbPolyline
90
2
70
1
43
0.0
10
-54.542319037918887
20
5.6750000000000602
10
-59.757680962081139
20
5.6750000000000664
42
-3.2596012026012082
0
LWPOLYLINE
5
120
100
AcDbEntity
8
0
100
AcDbPolyline
90
2
70
1
43
0.0
10
-16.442319037918878
20
-13.374999999999941
10
-21.657680962081134
20
-13.374999999999929
42
-3.2596012026012082
0
LWPOLYLINE
5
121
100
AcDbEntity
8
0
100
AcDbPolyline
90
2
70
1
43
0.0
10
40.707680962081156
20
5.6749999999999501
42
3.2596012026012082
10
35.49231903791889
20
5.6749999999999527
0
LWPOLYLINE
5
122
100
AcDbEntity
8
0
100
AcDbPolyline
90
2
70
1
43
0.0
10
78.807680962081164
20
5.6749999999998497
42
3.2596012026012082
10
73.592319037918898
20
5.6749999999998444
0
LWPOLYLINE
5
123
100
AcDbEntity
8
0
100
AcDbPolyline
90
2
70
1
43
0.0
10
97.857680962081147
20
-13.375000000000201
42
3.2596012026011878
10
92.642319037918838
20
-13.375000000000192
0
CIRCLE
5
124
100
AcDbEntity
8
0
100
AcDbCircle
10
-153.5
20
0
30
0
40
1.6999999999999993
210
0
220
0
230
1
0
CIRCLE
5
125
100
AcDbEntity
8
0
100
AcDbCircle
10
153.5
20
0
30
0
40
1.6999999999999993
210
0
220
0
230
1
0
LWPOLYLINE
5
126
100
AcDbEntity
8
0
100
AcDbPolyline
90
8
70
1
43
0.0
10
158.5
20
43.000000000000007
42
0.41421356237309587
10
149.00000000000003
20
52.500000000000028
10
-148.99999999999994
20
52.500000000000007
42
0.41421356237309886
10
-158.5
20
43.000000000000007
10
-158.49999999999997
20
-43.000000000000007
42
0.41421356237309587
10
-149
20
-52.500000000000028
10
149
20
-52.500000000000007
42
0.41421356237309886
10
158.50000000000003
20
-43.000000000000007
0
ENDSEC
0
SECTION
2
OBJECTS
0
DICTIONARY
5
C
100
AcDbDictionary
3
ACAD_GROUP
350
D
3
ACAD_MLINESTYLE
350
17
0
DICTIONARY
5
D
100
AcDbDictionary
0
DICTIONARY
5
1A
330
C
100
AcDbDictionary
0
DICTIONARY
5
17
100
AcDbDictionary
0
ENDSEC
0
EOF
